<svg width="1719" height="999" xmlns="http://www.w3.org/2000/svg" xmlns:xlink="http://www.w3.org/1999/xlink" overflow="hidden"><defs><clipPath id="clip0"><rect x="3212" y="669" width="1719" height="999"/></clipPath><clipPath id="clip1"><rect x="3215" y="671" width="1712" height="990"/></clipPath><clipPath id="clip2"><rect x="3325" y="841" width="1555" height="667"/></clipPath><clipPath id="clip3"><rect x="3215" y="671" width="1712" height="990"/></clipPath><clipPath id="clip4"><rect x="3215" y="671" width="1712" height="990"/></clipPath><clipPath id="clip5"><rect x="3215" y="671" width="1712" height="990"/></clipPath><clipPath id="clip6"><rect x="3215" y="671" width="1712" height="990"/></clipPath><clipPath id="clip7"><rect x="3215" y="671" width="1712" height="990"/></clipPath><clipPath id="clip8"><rect x="3215" y="671" width="1712" height="990"/></clipPath><clipPath id="clip9"><rect x="3215" y="671" width="1712" height="990"/></clipPath><clipPath id="clip10"><rect x="3215" y="671" width="1712" height="990"/></clipPath><clipPath id="clip11"><rect x="3215" y="671" width="1712" height="990"/></clipPath><clipPath id="clip12"><rect x="3215" y="671" width="1712" height="990"/></clipPath><clipPath id="clip13"><rect x="3215" y="671" width="1712" height="990"/></clipPath><clipPath id="clip14"><rect x="3215" y="671" width="1712" height="990"/></clipPath><clipPath id="clip15"><rect x="3215" y="671" width="1712" height="990"/></clipPath><clipPath id="clip16"><rect x="3215" y="671" width="1712" height="990"/></clipPath><clipPath id="clip17"><rect x="3215" y="671" width="1712" height="990"/></clipPath><clipPath id="clip18"><rect x="3215" y="671" width="1712" height="990"/></clipPath><clipPath id="clip19"><rect x="3215" y="671" width="1712" height="990"/></clipPath><clipPath id="clip20"><rect x="3215" y="671" width="1712" height="990"/></clipPath><clipPath id="clip21"><rect x="3215" y="671" width="1712" height="990"/></clipPath></defs><g clip-path="url(#clip0)" transform="translate(-3212 -669)"><rect x="3215" y="672" width="1712" height="990" fill="#FFFFFF" fill-opacity="1"/><g clip-path="url(#clip1)"><path d="M3325.5 1410.55 4876.5 1410.55M3325.5 1315.54 4876.5 1315.54M3325.5 1220.54 4876.5 1220.54M3325.5 1126.54 4876.5 1126.54M3325.5 1031.53 4876.5 1031.53M3325.5 936.531 4876.5 936.531M3325.5 841.5 4876.5 841.5" stroke="#D9D9D9" stroke-width="3.4375" stroke-linecap="butt" stroke-linejoin="round" stroke-miterlimit="10" stroke-opacity="1" fill="none" fill-rule="nonzero"/></g><g clip-path="url(#clip2)"><path d="M3432.11 1301.04 3529.12 1301.04 3529.12 1505 3432.11 1505ZM3742.12 901.03 3839.13 901.03 3839.13 1505 3742.12 1505ZM4052.13 918.03 4149.14 918.03 4149.14 1505 4052.13 1505ZM4362.14 955.031 4460.15 955.031 4460.15 1505 4362.14 1505ZM4673.15 1026.03 4770.16 1026.03 4770.16 1505 4673.15 1505Z" fill="#4472C4" fill-rule="nonzero" fill-opacity="1"/></g><g clip-path="url(#clip3)"><path d="M3325.5 1505.5 4876.5 1505.5" stroke="#D9D9D9" stroke-width="3.4375" stroke-linecap="butt" stroke-linejoin="round" stroke-miterlimit="10" stroke-opacity="1" fill="none" fill-rule="evenodd"/></g><g clip-path="url(#clip4)"><text fill="#595959" fill-opacity="1" font-family="Calibri,Calibri_MSFontService,sans-serif" font-style="normal" font-variant="normal" font-weight="400" font-stretch="normal" font-size="41" text-anchor="start" direction="ltr" writing-mode="lr-tb" unicode-bidi="normal" text-decoration="none" transform="matrix(1 0 0 1 3245.18 1515)">46</text></g><g clip-path="url(#clip5)"><text fill="#595959" fill-opacity="1" font-family="Calibri,Calibri_MSFontService,sans-serif" font-style="normal" font-variant="normal" font-weight="400" font-stretch="normal" font-size="41" text-anchor="start" direction="ltr" writing-mode="lr-tb" unicode-bidi="normal" text-decoration="none" transform="matrix(1 0 0 1 3245.18 1421)">47</text></g><g clip-path="url(#clip6)"><text fill="#595959" fill-opacity="1" font-family="Calibri,Calibri_MSFontService,sans-serif" font-style="normal" font-variant="normal" font-weight="400" font-stretch="normal" font-size="41" text-anchor="start" direction="ltr" writing-mode="lr-tb" unicode-bidi="normal" text-decoration="none" transform="matrix(1 0 0 1 3245.18 1326)">48</text></g><g clip-path="url(#clip7)"><text fill="#595959" fill-opacity="1" font-family="Calibri,Calibri_MSFontService,sans-serif" font-style="normal" font-variant="normal" font-weight="400" font-stretch="normal" font-size="41" text-anchor="start" direction="ltr" writing-mode="lr-tb" unicode-bidi="normal" text-decoration="none" transform="matrix(1 0 0 1 3245.18 1231)">49</text></g><g clip-path="url(#clip8)"><text fill="#595959" fill-opacity="1" font-family="Calibri,Calibri_MSFontService,sans-serif" font-style="normal" font-variant="normal" font-weight="400" font-stretch="normal" font-size="41" text-anchor="start" direction="ltr" writing-mode="lr-tb" unicode-bidi="normal" text-decoration="none" transform="matrix(1 0 0 1 3245.18 1136)">50</text></g><g clip-path="url(#clip9)"><text fill="#595959" fill-opacity="1" font-family="Calibri,Calibri_MSFontService,sans-serif" font-style="normal" font-variant="normal" font-weight="400" font-stretch="normal" font-size="41" text-anchor="start" direction="ltr" writing-mode="lr-tb" unicode-bidi="normal" text-decoration="none" transform="matrix(1 0 0 1 3245.18 1042)">51</text></g><g clip-path="url(#clip10)"><text fill="#595959" fill-opacity="1" font-family="Calibri,Calibri_MSFontService,sans-serif" font-style="normal" font-variant="normal" font-weight="400" font-stretch="normal" font-size="41" text-anchor="start" direction="ltr" writing-mode="lr-tb" unicode-bidi="normal" text-decoration="none" transform="matrix(1 0 0 1 3245.18 947)">52</text></g><g clip-path="url(#clip11)"><text fill="#595959" fill-opacity="1" font-family="Calibri,Calibri_MSFontService,sans-serif" font-style="normal" font-variant="normal" font-weight="400" font-stretch="normal" font-size="41" text-anchor="start" direction="ltr" writing-mode="lr-tb" unicode-bidi="normal" text-decoration="none" transform="matrix(1 0 0 1 3245.18 852)">53</text></g><g clip-path="url(#clip12)"><text fill="#595959" fill-opacity="1" font-family="Calibri,Calibri_MSFontService,sans-serif" font-style="normal" font-variant="normal" font-weight="400" font-stretch="normal" font-size="41" text-anchor="start" direction="ltr" writing-mode="lr-tb" unicode-bidi="normal" text-decoration="none" transform="matrix(1 0 0 1 3410.76 1570)">baseline</text></g><g clip-path="url(#clip13)"><text fill="#595959" fill-opacity="1" font-family="Calibri,Calibri_MSFontService,sans-serif" font-style="normal" font-variant="normal" font-weight="400" font-stretch="normal" font-size="41" text-anchor="start" direction="ltr" writing-mode="lr-tb" unicode-bidi="normal" text-decoration="none" transform="matrix(1 0 0 1 3648.98 1570)">retrain every 10s</text></g><g clip-path="url(#clip14)"><text fill="#595959" fill-opacity="1" font-family="Calibri,Calibri_MSFontService,sans-serif" font-style="normal" font-variant="normal" font-weight="400" font-stretch="normal" font-size="41" text-anchor="start" direction="ltr" writing-mode="lr-tb" unicode-bidi="normal" text-decoration="none" transform="matrix(1 0 0 1 3722.99 1621)">(15 FPS)</text></g><g clip-path="url(#clip15)"><text fill="#595959" fill-opacity="1" font-family="Calibri,Calibri_MSFontService,sans-serif" font-style="normal" font-variant="normal" font-weight="400" font-stretch="normal" font-size="41" text-anchor="start" direction="ltr" writing-mode="lr-tb" unicode-bidi="normal" text-decoration="none" transform="matrix(1 0 0 1 3959.26 1570)">retrain every 10s</text></g><g clip-path="url(#clip16)"><text fill="#595959" fill-opacity="1" font-family="Calibri,Calibri_MSFontService,sans-serif" font-style="normal" font-variant="normal" font-weight="400" font-stretch="normal" font-size="41" text-anchor="start" direction="ltr" writing-mode="lr-tb" unicode-bidi="normal" text-decoration="none" transform="matrix(1 0 0 1 4043.72 1621)">(5 FPS)</text></g><g clip-path="url(#clip17)"><text fill="#595959" fill-opacity="1" font-family="Calibri,Calibri_MSFontService,sans-serif" font-style="normal" font-variant="normal" font-weight="400" font-stretch="normal" font-size="41" text-anchor="start" direction="ltr" writing-mode="lr-tb" unicode-bidi="normal" text-decoration="none" transform="matrix(1 0 0 1 4269.55 1570)">retrain every 20s</text></g><g clip-path="url(#clip18)"><text fill="#595959" fill-opacity="1" font-family="Calibri,Calibri_MSFontService,sans-serif" font-style="normal" font-variant="normal" font-weight="400" font-stretch="normal" font-size="41" text-anchor="start" direction="ltr" writing-mode="lr-tb" unicode-bidi="normal" text-decoration="none" transform="matrix(1 0 0 1 4343.56 1621)">(15 FPS)</text></g><g clip-path="url(#clip19)"><text fill="#595959" fill-opacity="1" font-family="Calibri,Calibri_MSFontService,sans-serif" font-style="normal" font-variant="normal" font-weight="400" font-stretch="normal" font-size="41" text-anchor="start" direction="ltr" writing-mode="lr-tb" unicode-bidi="normal" text-decoration="none" transform="matrix(1 0 0 1 4579.83 1570)">retrain every 20s</text></g><g clip-path="url(#clip20)"><text fill="#595959" fill-opacity="1" font-family="Calibri,Calibri_MSFontService,sans-serif" font-style="normal" font-variant="normal" font-weight="400" font-stretch="normal" font-size="41" text-anchor="start" direction="ltr" writing-mode="lr-tb" unicode-bidi="normal" text-decoration="none" transform="matrix(1 0 0 1 4664.29 1621)">(5 FPS)</text></g><g clip-path="url(#clip21)"><text fill="#595959" fill-opacity="1" font-family="Calibri,Calibri_MSFontService,sans-serif" font-style="normal" font-variant="normal" font-weight="400" font-stretch="normal" font-size="64" text-anchor="start" direction="ltr" writing-mode="lr-tb" unicode-bidi="normal" text-decoration="none" transform="matrix(1 0 0 1 3909.27 767)">Average IOU</text></g><rect x="3215.5" y="672.5" width="1712" height="990" stroke="#D9D9D9" stroke-width="3.4375" stroke-linecap="butt" stroke-linejoin="round" stroke-miterlimit="10" stroke-opacity="1" fill="none"/></g></svg>