<svg width="2392" height="1256" xmlns="http://www.w3.org/2000/svg" xmlns:xlink="http://www.w3.org/1999/xlink" overflow="hidden"><defs><clipPath id="clip0"><rect x="96" y="774" width="2392" height="1256"/></clipPath><clipPath id="clip1"><rect x="100" y="777" width="2385" height="1250"/></clipPath><clipPath id="clip2"><rect x="100" y="777" width="2385" height="1250"/></clipPath><clipPath id="clip3"><rect x="100" y="777" width="2385" height="1250"/></clipPath><clipPath id="clip4"><rect x="100" y="777" width="2385" height="1250"/></clipPath><clipPath id="clip5"><rect x="100" y="777" width="2385" height="1250"/></clipPath><clipPath id="clip6"><rect x="100" y="777" width="2385" height="1250"/></clipPath><clipPath id="clip7"><rect x="100" y="777" width="2385" height="1250"/></clipPath><clipPath id="clip8"><rect x="100" y="777" width="2385" height="1250"/></clipPath><clipPath id="clip9"><rect x="100" y="777" width="2385" height="1250"/></clipPath><clipPath id="clip10"><rect x="100" y="777" width="2385" height="1250"/></clipPath><clipPath id="clip11"><rect x="100" y="777" width="2385" height="1250"/></clipPath><clipPath id="clip12"><rect x="100" y="777" width="2385" height="1250"/></clipPath><clipPath id="clip13"><rect x="100" y="777" width="2385" height="1250"/></clipPath><clipPath id="clip14"><rect x="100" y="777" width="2385" height="1250"/></clipPath><clipPath id="clip15"><rect x="100" y="777" width="2385" height="1250"/></clipPath><clipPath id="clip16"><rect x="100" y="777" width="2385" height="1250"/></clipPath><clipPath id="clip17"><rect x="100" y="777" width="2385" height="1250"/></clipPath><clipPath id="clip18"><rect x="100" y="777" width="2385" height="1250"/></clipPath><clipPath id="clip19"><rect x="100" y="777" width="2385" height="1250"/></clipPath><clipPath id="clip20"><rect x="100" y="777" width="2385" height="1250"/></clipPath><clipPath id="clip21"><rect x="100" y="777" width="2385" height="1250"/></clipPath><clipPath id="clip22"><rect x="100" y="777" width="2385" height="1250"/></clipPath><clipPath id="clip23"><rect x="100" y="777" width="2385" height="1250"/></clipPath><clipPath id="clip24"><rect x="100" y="777" width="2385" height="1250"/></clipPath><clipPath id="clip25"><rect x="100" y="777" width="2385" height="1250"/></clipPath><clipPath id="clip26"><rect x="100" y="777" width="2385" height="1250"/></clipPath><clipPath id="clip27"><rect x="100" y="777" width="2385" height="1250"/></clipPath><clipPath id="clip28"><rect x="100" y="777" width="2385" height="1250"/></clipPath><clipPath id="clip29"><rect x="100" y="777" width="2385" height="1250"/></clipPath><clipPath id="clip30"><rect x="100" y="777" width="2385" height="1250"/></clipPath><clipPath id="clip31"><rect x="100" y="777" width="2385" height="1250"/></clipPath><clipPath id="clip32"><rect x="100" y="777" width="2385" height="1250"/></clipPath><clipPath id="clip33"><rect x="100" y="777" width="2385" height="1250"/></clipPath><clipPath id="clip34"><rect x="100" y="777" width="2385" height="1250"/></clipPath><clipPath id="clip35"><rect x="100" y="777" width="2385" height="1250"/></clipPath><clipPath id="clip36"><rect x="100" y="777" width="2385" height="1250"/></clipPath><clipPath id="clip37"><rect x="100" y="777" width="2385" height="1250"/></clipPath><clipPath id="clip38"><rect x="100" y="777" width="2385" height="1250"/></clipPath><clipPath id="clip39"><rect x="100" y="777" width="2385" height="1250"/></clipPath><clipPath id="clip40"><rect x="100" y="777" width="2385" height="1250"/></clipPath><clipPath id="clip41"><rect x="100" y="777" width="2385" height="1250"/></clipPath></defs><g clip-path="url(#clip0)" transform="translate(-96 -774)"><rect x="100" y="778" width="2386" height="1249" fill="#FFFFFF" fill-opacity="1"/><g clip-path="url(#clip1)"><path d="M307.5 1622.55 2424.5 1622.55M307.5 1526.55 2424.5 1526.55M307.5 1429.55 2424.5 1429.55M307.5 1333.54 2424.5 1333.54M307.5 1236.54 2424.5 1236.54M307.5 1140.54 2424.5 1140.54M307.5 1044.53 2424.5 1044.53M307.5 947.5 2424.5 947.5" stroke="#D9D9D9" stroke-width="3.4375" stroke-linecap="butt" stroke-linejoin="round" stroke-miterlimit="10" stroke-opacity="1" fill="none" fill-rule="nonzero"/></g><g clip-path="url(#clip2)"><path d="M542.518 947.5 542.518 1718.5M777.526 947.5 777.526 1718.5M1013.53 947.5 1013.53 1718.5M1248.54 947.5 1248.54 1718.5M1483.55 947.5 1483.55 1718.5M1718.56 947.5 1718.56 1718.5M1954.56 947.5 1954.56 1718.5M2189.57 947.5 2189.57 1718.5M2424.5 947.5 2424.5 1718.5" stroke="#D9D9D9" stroke-width="3.4375" stroke-linecap="butt" stroke-linejoin="round" stroke-miterlimit="10" stroke-opacity="1" fill="none" fill-rule="nonzero"/></g><g clip-path="url(#clip3)"><path d="M0 0 0.000360892 771" stroke="#BFBFBF" stroke-width="3.4375" stroke-linecap="butt" stroke-linejoin="round" stroke-miterlimit="10" stroke-opacity="1" fill="none" fill-rule="evenodd" transform="matrix(1 0 0 -1 307.5 1718.5)"/></g><g clip-path="url(#clip4)"><path d="M307.5 1718.5 2424.5 1718.5" stroke="#BFBFBF" stroke-width="3.4375" stroke-linecap="butt" stroke-linejoin="round" stroke-miterlimit="10" stroke-opacity="1" fill="none" fill-rule="evenodd"/></g><g clip-path="url(#clip5)"><path d="M553.98 1103.26C553.98 1109.33 549.056 1114.26 542.981 1114.26 536.906 1114.26 531.981 1109.33 531.981 1103.26 531.981 1097.18 536.906 1092.26 542.981 1092.26 549.056 1092.26 553.98 1097.18 553.98 1103.26Z" stroke="#4472C4" stroke-width="3.4375" stroke-linecap="butt" stroke-linejoin="round" stroke-miterlimit="10" stroke-opacity="1" fill="#4472C4" fill-rule="nonzero" fill-opacity="1"/><path d="M789.98 1183.26C789.98 1189.33 785.056 1194.26 778.981 1194.26 772.906 1194.26 767.981 1189.33 767.981 1183.26 767.981 1177.18 772.906 1172.26 778.981 1172.26 785.056 1172.26 789.98 1177.18 789.98 1183.26Z" stroke="#4472C4" stroke-width="3.4375" stroke-linecap="butt" stroke-linejoin="round" stroke-miterlimit="10" stroke-opacity="1" fill="#4472C4" fill-rule="nonzero" fill-opacity="1"/><path d="M1024.98 1359.26C1024.98 1365.33 1020.06 1370.26 1013.98 1370.26 1007.91 1370.26 1002.98 1365.33 1002.98 1359.26 1002.98 1353.18 1007.91 1348.26 1013.98 1348.26 1020.06 1348.26 1024.98 1353.18 1024.98 1359.26Z" stroke="#4472C4" stroke-width="3.4375" stroke-linecap="butt" stroke-linejoin="round" stroke-miterlimit="10" stroke-opacity="1" fill="#4472C4" fill-rule="nonzero" fill-opacity="1"/><path d="M1259.98 1237.26C1259.98 1243.33 1255.06 1248.26 1248.98 1248.26 1242.91 1248.26 1237.98 1243.33 1237.98 1237.26 1237.98 1231.18 1242.91 1226.26 1248.98 1226.26 1255.06 1226.26 1259.98 1231.18 1259.98 1237.26Z" stroke="#4472C4" stroke-width="3.4375" stroke-linecap="butt" stroke-linejoin="round" stroke-miterlimit="10" stroke-opacity="1" fill="#4472C4" fill-rule="nonzero" fill-opacity="1"/><path d="M1494.98 1315.26C1494.98 1321.33 1490.06 1326.26 1483.98 1326.26 1477.91 1326.26 1472.98 1321.33 1472.98 1315.26 1472.98 1309.18 1477.91 1304.26 1483.98 1304.26 1490.06 1304.26 1494.98 1309.18 1494.98 1315.26Z" stroke="#4472C4" stroke-width="3.4375" stroke-linecap="butt" stroke-linejoin="round" stroke-miterlimit="10" stroke-opacity="1" fill="#4472C4" fill-rule="nonzero" fill-opacity="1"/><path d="M1729.98 1448.26C1729.98 1454.33 1725.06 1459.26 1718.98 1459.26 1712.91 1459.26 1707.98 1454.33 1707.98 1448.26 1707.98 1442.18 1712.91 1437.26 1718.98 1437.26 1725.06 1437.26 1729.98 1442.18 1729.98 1448.26Z" stroke="#4472C4" stroke-width="3.4375" stroke-linecap="butt" stroke-linejoin="round" stroke-miterlimit="10" stroke-opacity="1" fill="#4472C4" fill-rule="nonzero" fill-opacity="1"/><path d="M1965.98 1174.26C1965.98 1180.33 1961.06 1185.26 1954.98 1185.26 1948.91 1185.26 1943.98 1180.33 1943.98 1174.26 1943.98 1168.18 1948.91 1163.26 1954.98 1163.26 1961.06 1163.26 1965.98 1168.18 1965.98 1174.26Z" stroke="#4472C4" stroke-width="3.4375" stroke-linecap="butt" stroke-linejoin="round" stroke-miterlimit="10" stroke-opacity="1" fill="#4472C4" fill-rule="nonzero" fill-opacity="1"/><path d="M2200.98 1117.26C2200.98 1123.33 2196.06 1128.26 2189.98 1128.26 2183.91 1128.26 2178.98 1123.33 2178.98 1117.26 2178.98 1111.18 2183.91 1106.26 2189.98 1106.26 2196.06 1106.26 2200.98 1111.18 2200.98 1117.26Z" stroke="#4472C4" stroke-width="3.4375" stroke-linecap="butt" stroke-linejoin="round" stroke-miterlimit="10" stroke-opacity="1" fill="#4472C4" fill-rule="nonzero" fill-opacity="1"/></g><g clip-path="url(#clip6)"><path d="M553.98 1103.26C553.98 1109.33 549.056 1114.26 542.981 1114.26 536.906 1114.26 531.981 1109.33 531.981 1103.26 531.981 1097.18 536.906 1092.26 542.981 1092.26 549.056 1092.26 553.98 1097.18 553.98 1103.26Z" stroke="#ED7D31" stroke-width="3.4375" stroke-linecap="butt" stroke-linejoin="round" stroke-miterlimit="10" stroke-opacity="1" fill="#ED7D31" fill-rule="nonzero" fill-opacity="1"/><path d="M789.98 1138.26C789.98 1144.33 785.056 1149.26 778.981 1149.26 772.906 1149.26 767.981 1144.33 767.981 1138.26 767.981 1132.18 772.906 1127.26 778.981 1127.26 785.056 1127.26 789.98 1132.18 789.98 1138.26Z" stroke="#ED7D31" stroke-width="3.4375" stroke-linecap="butt" stroke-linejoin="round" stroke-miterlimit="10" stroke-opacity="1" fill="#ED7D31" fill-rule="nonzero" fill-opacity="1"/><path d="M1024.98 1349.26C1024.98 1355.33 1020.06 1360.26 1013.98 1360.26 1007.91 1360.26 1002.98 1355.33 1002.98 1349.26 1002.98 1343.18 1007.91 1338.26 1013.98 1338.26 1020.06 1338.26 1024.98 1343.18 1024.98 1349.26Z" stroke="#ED7D31" stroke-width="3.4375" stroke-linecap="butt" stroke-linejoin="round" stroke-miterlimit="10" stroke-opacity="1" fill="#ED7D31" fill-rule="nonzero" fill-opacity="1"/><path d="M1259.98 1246.26C1259.98 1252.33 1255.06 1257.26 1248.98 1257.26 1242.91 1257.26 1237.98 1252.33 1237.98 1246.26 1237.98 1240.18 1242.91 1235.26 1248.98 1235.26 1255.06 1235.26 1259.98 1240.18 1259.98 1246.26Z" stroke="#ED7D31" stroke-width="3.4375" stroke-linecap="butt" stroke-linejoin="round" stroke-miterlimit="10" stroke-opacity="1" fill="#ED7D31" fill-rule="nonzero" fill-opacity="1"/><path d="M1494.98 1276.26C1494.98 1282.33 1490.06 1287.26 1483.98 1287.26 1477.91 1287.26 1472.98 1282.33 1472.98 1276.26 1472.98 1270.18 1477.91 1265.26 1483.98 1265.26 1490.06 1265.26 1494.98 1270.18 1494.98 1276.26Z" stroke="#ED7D31" stroke-width="3.4375" stroke-linecap="butt" stroke-linejoin="round" stroke-miterlimit="10" stroke-opacity="1" fill="#ED7D31" fill-rule="nonzero" fill-opacity="1"/><path d="M1729.98 1391.26C1729.98 1397.33 1725.06 1402.26 1718.98 1402.26 1712.91 1402.26 1707.98 1397.33 1707.98 1391.26 1707.98 1385.18 1712.91 1380.26 1718.98 1380.26 1725.06 1380.26 1729.98 1385.18 1729.98 1391.26Z" stroke="#ED7D31" stroke-width="3.4375" stroke-linecap="butt" stroke-linejoin="round" stroke-miterlimit="10" stroke-opacity="1" fill="#ED7D31" fill-rule="nonzero" fill-opacity="1"/><path d="M1965.98 1137.26C1965.98 1143.33 1961.06 1148.26 1954.98 1148.26 1948.91 1148.26 1943.98 1143.33 1943.98 1137.26 1943.98 1131.18 1948.91 1126.26 1954.98 1126.26 1961.06 1126.26 1965.98 1131.18 1965.98 1137.26Z" stroke="#ED7D31" stroke-width="3.4375" stroke-linecap="butt" stroke-linejoin="round" stroke-miterlimit="10" stroke-opacity="1" fill="#ED7D31" fill-rule="nonzero" fill-opacity="1"/><path d="M2200.98 1068.26C2200.98 1074.33 2196.06 1079.26 2189.98 1079.26 2183.91 1079.26 2178.98 1074.33 2178.98 1068.26 2178.98 1062.18 2183.91 1057.26 2189.98 1057.26 2196.06 1057.26 2200.98 1062.18 2200.98 1068.26Z" stroke="#ED7D31" stroke-width="3.4375" stroke-linecap="butt" stroke-linejoin="round" stroke-miterlimit="10" stroke-opacity="1" fill="#ED7D31" fill-rule="nonzero" fill-opacity="1"/></g><g clip-path="url(#clip7)"><path d="M553.98 1103.26C553.98 1109.33 549.056 1114.26 542.981 1114.26 536.906 1114.26 531.981 1109.33 531.981 1103.26 531.981 1097.18 536.906 1092.26 542.981 1092.26 549.056 1092.26 553.98 1097.18 553.98 1103.26Z" stroke="#A5A5A5" stroke-width="3.4375" stroke-linecap="butt" stroke-linejoin="round" stroke-miterlimit="10" stroke-opacity="1" fill="#A5A5A5" fill-rule="nonzero" fill-opacity="1"/><path d="M789.98 1151.26C789.98 1157.33 785.056 1162.26 778.981 1162.26 772.906 1162.26 767.981 1157.33 767.981 1151.26 767.981 1145.18 772.906 1140.26 778.981 1140.26 785.056 1140.26 789.98 1145.18 789.98 1151.26Z" stroke="#A5A5A5" stroke-width="3.4375" stroke-linecap="butt" stroke-linejoin="round" stroke-miterlimit="10" stroke-opacity="1" fill="#A5A5A5" fill-rule="nonzero" fill-opacity="1"/><path d="M1024.98 1345.26C1024.98 1351.33 1020.06 1356.26 1013.98 1356.26 1007.91 1356.26 1002.98 1351.33 1002.98 1345.26 1002.98 1339.18 1007.91 1334.26 1013.98 1334.26 1020.06 1334.26 1024.98 1339.18 1024.98 1345.26Z" stroke="#A5A5A5" stroke-width="3.4375" stroke-linecap="butt" stroke-linejoin="round" stroke-miterlimit="10" stroke-opacity="1" fill="#A5A5A5" fill-rule="nonzero" fill-opacity="1"/><path d="M1259.98 1249.26C1259.98 1255.33 1255.06 1260.26 1248.98 1260.26 1242.91 1260.26 1237.98 1255.33 1237.98 1249.26 1237.98 1243.18 1242.91 1238.26 1248.98 1238.26 1255.06 1238.26 1259.98 1243.18 1259.98 1249.26Z" stroke="#A5A5A5" stroke-width="3.4375" stroke-linecap="butt" stroke-linejoin="round" stroke-miterlimit="10" stroke-opacity="1" fill="#A5A5A5" fill-rule="nonzero" fill-opacity="1"/><path d="M1494.98 1282.26C1494.98 1288.33 1490.06 1293.26 1483.98 1293.26 1477.91 1293.26 1472.98 1288.33 1472.98 1282.26 1472.98 1276.18 1477.91 1271.26 1483.98 1271.26 1490.06 1271.26 1494.98 1276.18 1494.98 1282.26Z" stroke="#A5A5A5" stroke-width="3.4375" stroke-linecap="butt" stroke-linejoin="round" stroke-miterlimit="10" stroke-opacity="1" fill="#A5A5A5" fill-rule="nonzero" fill-opacity="1"/><path d="M1729.98 1409.26C1729.98 1415.33 1725.06 1420.26 1718.98 1420.26 1712.91 1420.26 1707.98 1415.33 1707.98 1409.26 1707.98 1403.18 1712.91 1398.26 1718.98 1398.26 1725.06 1398.26 1729.98 1403.18 1729.98 1409.26Z" stroke="#A5A5A5" stroke-width="3.4375" stroke-linecap="butt" stroke-linejoin="round" stroke-miterlimit="10" stroke-opacity="1" fill="#A5A5A5" fill-rule="nonzero" fill-opacity="1"/><path d="M1965.98 1113.26C1965.98 1119.33 1961.06 1124.26 1954.98 1124.26 1948.91 1124.26 1943.98 1119.33 1943.98 1113.26 1943.98 1107.18 1948.91 1102.26 1954.98 1102.26 1961.06 1102.26 1965.98 1107.18 1965.98 1113.26Z" stroke="#A5A5A5" stroke-width="3.4375" stroke-linecap="butt" stroke-linejoin="round" stroke-miterlimit="10" stroke-opacity="1" fill="#A5A5A5" fill-rule="nonzero" fill-opacity="1"/><path d="M2200.98 1071.26C2200.98 1077.33 2196.06 1082.26 2189.98 1082.26 2183.91 1082.26 2178.98 1077.33 2178.98 1071.26 2178.98 1065.18 2183.91 1060.26 2189.98 1060.26 2196.06 1060.26 2200.98 1065.18 2200.98 1071.26Z" stroke="#A5A5A5" stroke-width="3.4375" stroke-linecap="butt" stroke-linejoin="round" stroke-miterlimit="10" stroke-opacity="1" fill="#A5A5A5" fill-rule="nonzero" fill-opacity="1"/></g><g clip-path="url(#clip8)"><path d="M553.98 1103.26C553.98 1109.33 549.056 1114.26 542.981 1114.26 536.906 1114.26 531.981 1109.33 531.981 1103.26 531.981 1097.18 536.906 1092.26 542.981 1092.26 549.056 1092.26 553.98 1097.18 553.98 1103.26Z" stroke="#FFC000" stroke-width="3.4375" stroke-linecap="butt" stroke-linejoin="round" stroke-miterlimit="10" stroke-opacity="1" fill="#FFC000" fill-rule="nonzero" fill-opacity="1"/><path d="M789.98 1183.26C789.98 1189.33 785.056 1194.26 778.981 1194.26 772.906 1194.26 767.981 1189.33 767.981 1183.26 767.981 1177.18 772.906 1172.26 778.981 1172.26 785.056 1172.26 789.98 1177.18 789.98 1183.26Z" stroke="#FFC000" stroke-width="3.4375" stroke-linecap="butt" stroke-linejoin="round" stroke-miterlimit="10" stroke-opacity="1" fill="#FFC000" fill-rule="nonzero" fill-opacity="1"/><path d="M1024.98 1375.26C1024.98 1381.33 1020.06 1386.26 1013.98 1386.26 1007.91 1386.26 1002.98 1381.33 1002.98 1375.26 1002.98 1369.18 1007.91 1364.26 1013.98 1364.26 1020.06 1364.26 1024.98 1369.18 1024.98 1375.26Z" stroke="#FFC000" stroke-width="3.4375" stroke-linecap="butt" stroke-linejoin="round" stroke-miterlimit="10" stroke-opacity="1" fill="#FFC000" fill-rule="nonzero" fill-opacity="1"/><path d="M1259.98 1234.26C1259.98 1240.33 1255.06 1245.26 1248.98 1245.26 1242.91 1245.26 1237.98 1240.33 1237.98 1234.26 1237.98 1228.18 1242.91 1223.26 1248.98 1223.26 1255.06 1223.26 1259.98 1228.18 1259.98 1234.26Z" stroke="#FFC000" stroke-width="3.4375" stroke-linecap="butt" stroke-linejoin="round" stroke-miterlimit="10" stroke-opacity="1" fill="#FFC000" fill-rule="nonzero" fill-opacity="1"/><path d="M1494.98 1258.26C1494.98 1264.33 1490.06 1269.26 1483.98 1269.26 1477.91 1269.26 1472.98 1264.33 1472.98 1258.26 1472.98 1252.18 1477.91 1247.26 1483.98 1247.26 1490.06 1247.26 1494.98 1252.18 1494.98 1258.26Z" stroke="#FFC000" stroke-width="3.4375" stroke-linecap="butt" stroke-linejoin="round" stroke-miterlimit="10" stroke-opacity="1" fill="#FFC000" fill-rule="nonzero" fill-opacity="1"/><path d="M1729.98 1398.26C1729.98 1404.33 1725.06 1409.26 1718.98 1409.26 1712.91 1409.26 1707.98 1404.33 1707.98 1398.26 1707.98 1392.18 1712.91 1387.26 1718.98 1387.26 1725.06 1387.26 1729.98 1392.18 1729.98 1398.26Z" stroke="#FFC000" stroke-width="3.4375" stroke-linecap="butt" stroke-linejoin="round" stroke-miterlimit="10" stroke-opacity="1" fill="#FFC000" fill-rule="nonzero" fill-opacity="1"/><path d="M1965.98 1137.26C1965.98 1143.33 1961.06 1148.26 1954.98 1148.26 1948.91 1148.26 1943.98 1143.33 1943.98 1137.26 1943.98 1131.18 1948.91 1126.26 1954.98 1126.26 1961.06 1126.26 1965.98 1131.18 1965.98 1137.26Z" stroke="#FFC000" stroke-width="3.4375" stroke-linecap="butt" stroke-linejoin="round" stroke-miterlimit="10" stroke-opacity="1" fill="#FFC000" fill-rule="nonzero" fill-opacity="1"/><path d="M2200.98 1064.26C2200.98 1070.33 2196.06 1075.26 2189.98 1075.26 2183.91 1075.26 2178.98 1070.33 2178.98 1064.26 2178.98 1058.18 2183.91 1053.26 2189.98 1053.26 2196.06 1053.26 2200.98 1058.18 2200.98 1064.26Z" stroke="#FFC000" stroke-width="3.4375" stroke-linecap="butt" stroke-linejoin="round" stroke-miterlimit="10" stroke-opacity="1" fill="#FFC000" fill-rule="nonzero" fill-opacity="1"/></g><g clip-path="url(#clip9)"><path d="M553.98 1103.26C553.98 1109.33 549.056 1114.26 542.981 1114.26 536.906 1114.26 531.981 1109.33 531.981 1103.26 531.981 1097.18 536.906 1092.26 542.981 1092.26 549.056 1092.26 553.98 1097.18 553.98 1103.26Z" stroke="#5B9BD5" stroke-width="3.4375" stroke-linecap="butt" stroke-linejoin="round" stroke-miterlimit="10" stroke-opacity="1" fill="#5B9BD5" fill-rule="nonzero" fill-opacity="1"/><path d="M789.98 1183.26C789.98 1189.33 785.056 1194.26 778.981 1194.26 772.906 1194.26 767.981 1189.33 767.981 1183.26 767.981 1177.18 772.906 1172.26 778.981 1172.26 785.056 1172.26 789.98 1177.18 789.98 1183.26Z" stroke="#5B9BD5" stroke-width="3.4375" stroke-linecap="butt" stroke-linejoin="round" stroke-miterlimit="10" stroke-opacity="1" fill="#5B9BD5" fill-rule="nonzero" fill-opacity="1"/><path d="M1024.98 1357.26C1024.98 1363.33 1020.06 1368.26 1013.98 1368.26 1007.91 1368.26 1002.98 1363.33 1002.98 1357.26 1002.98 1351.18 1007.91 1346.26 1013.98 1346.26 1020.06 1346.26 1024.98 1351.18 1024.98 1357.26Z" stroke="#5B9BD5" stroke-width="3.4375" stroke-linecap="butt" stroke-linejoin="round" stroke-miterlimit="10" stroke-opacity="1" fill="#5B9BD5" fill-rule="nonzero" fill-opacity="1"/><path d="M1259.98 1255.26C1259.98 1261.33 1255.06 1266.26 1248.98 1266.26 1242.91 1266.26 1237.98 1261.33 1237.98 1255.26 1237.98 1249.18 1242.91 1244.26 1248.98 1244.26 1255.06 1244.26 1259.98 1249.18 1259.98 1255.26Z" stroke="#5B9BD5" stroke-width="3.4375" stroke-linecap="butt" stroke-linejoin="round" stroke-miterlimit="10" stroke-opacity="1" fill="#5B9BD5" fill-rule="nonzero" fill-opacity="1"/><path d="M1494.98 1273.26C1494.98 1279.33 1490.06 1284.26 1483.98 1284.26 1477.91 1284.26 1472.98 1279.33 1472.98 1273.26 1472.98 1267.18 1477.91 1262.26 1483.98 1262.26 1490.06 1262.26 1494.98 1267.18 1494.98 1273.26Z" stroke="#5B9BD5" stroke-width="3.4375" stroke-linecap="butt" stroke-linejoin="round" stroke-miterlimit="10" stroke-opacity="1" fill="#5B9BD5" fill-rule="nonzero" fill-opacity="1"/><path d="M1729.98 1401.26C1729.98 1407.33 1725.06 1412.26 1718.98 1412.26 1712.91 1412.26 1707.98 1407.33 1707.98 1401.26 1707.98 1395.18 1712.91 1390.26 1718.98 1390.26 1725.06 1390.26 1729.98 1395.18 1729.98 1401.26Z" stroke="#5B9BD5" stroke-width="3.4375" stroke-linecap="butt" stroke-linejoin="round" stroke-miterlimit="10" stroke-opacity="1" fill="#5B9BD5" fill-rule="nonzero" fill-opacity="1"/><path d="M1965.98 1150.26C1965.98 1156.33 1961.06 1161.26 1954.98 1161.26 1948.91 1161.26 1943.98 1156.33 1943.98 1150.26 1943.98 1144.18 1948.91 1139.26 1954.98 1139.26 1961.06 1139.26 1965.98 1144.18 1965.98 1150.26Z" stroke="#5B9BD5" stroke-width="3.4375" stroke-linecap="butt" stroke-linejoin="round" stroke-miterlimit="10" stroke-opacity="1" fill="#5B9BD5" fill-rule="nonzero" fill-opacity="1"/><path d="M2200.98 1090.26C2200.98 1096.33 2196.06 1101.26 2189.98 1101.26 2183.91 1101.26 2178.98 1096.33 2178.98 1090.26 2178.98 1084.18 2183.91 1079.26 2189.98 1079.26 2196.06 1079.26 2200.98 1084.18 2200.98 1090.26Z" stroke="#5B9BD5" stroke-width="3.4375" stroke-linecap="butt" stroke-linejoin="round" stroke-miterlimit="10" stroke-opacity="1" fill="#5B9BD5" fill-rule="nonzero" fill-opacity="1"/></g><g clip-path="url(#clip10)"><text fill="#595959" fill-opacity="1" font-family="Calibri,Calibri_MSFontService,sans-serif" font-style="normal" font-variant="normal" font-weight="400" font-stretch="normal" font-size="41" text-anchor="start" direction="ltr" writing-mode="lr-tb" unicode-bidi="normal" text-decoration="none" transform="matrix(1 0 0 1 248.363 1729)">0</text></g><g clip-path="url(#clip11)"><text fill="#595959" fill-opacity="1" font-family="Calibri,Calibri_MSFontService,sans-serif" font-style="normal" font-variant="normal" font-weight="400" font-stretch="normal" font-size="41" text-anchor="start" direction="ltr" writing-mode="lr-tb" unicode-bidi="normal" text-decoration="none" transform="matrix(1 0 0 1 227.463 1633)">10</text></g><g clip-path="url(#clip12)"><text fill="#595959" fill-opacity="1" font-family="Calibri,Calibri_MSFontService,sans-serif" font-style="normal" font-variant="normal" font-weight="400" font-stretch="normal" font-size="41" text-anchor="start" direction="ltr" writing-mode="lr-tb" unicode-bidi="normal" text-decoration="none" transform="matrix(1 0 0 1 227.463 1536)">20</text></g><g clip-path="url(#clip13)"><text fill="#595959" fill-opacity="1" font-family="Calibri,Calibri_MSFontService,sans-serif" font-style="normal" font-variant="normal" font-weight="400" font-stretch="normal" font-size="41" text-anchor="start" direction="ltr" writing-mode="lr-tb" unicode-bidi="normal" text-decoration="none" transform="matrix(1 0 0 1 227.463 1440)">30</text></g><g clip-path="url(#clip14)"><text fill="#595959" fill-opacity="1" font-family="Calibri,Calibri_MSFontService,sans-serif" font-style="normal" font-variant="normal" font-weight="400" font-stretch="normal" font-size="41" text-anchor="start" direction="ltr" writing-mode="lr-tb" unicode-bidi="normal" text-decoration="none" transform="matrix(1 0 0 1 227.463 1343)">40</text></g><g clip-path="url(#clip15)"><text fill="#595959" fill-opacity="1" font-family="Calibri,Calibri_MSFontService,sans-serif" font-style="normal" font-variant="normal" font-weight="400" font-stretch="normal" font-size="41" text-anchor="start" direction="ltr" writing-mode="lr-tb" unicode-bidi="normal" text-decoration="none" transform="matrix(1 0 0 1 227.463 1247)">50</text></g><g clip-path="url(#clip16)"><text fill="#595959" fill-opacity="1" font-family="Calibri,Calibri_MSFontService,sans-serif" font-style="normal" font-variant="normal" font-weight="400" font-stretch="normal" font-size="41" text-anchor="start" direction="ltr" writing-mode="lr-tb" unicode-bidi="normal" text-decoration="none" transform="matrix(1 0 0 1 227.463 1151)">60</text></g><g clip-path="url(#clip17)"><text fill="#595959" fill-opacity="1" font-family="Calibri,Calibri_MSFontService,sans-serif" font-style="normal" font-variant="normal" font-weight="400" font-stretch="normal" font-size="41" text-anchor="start" direction="ltr" writing-mode="lr-tb" unicode-bidi="normal" text-decoration="none" transform="matrix(1 0 0 1 227.463 1054)">70</text></g><g clip-path="url(#clip18)"><text fill="#595959" fill-opacity="1" font-family="Calibri,Calibri_MSFontService,sans-serif" font-style="normal" font-variant="normal" font-weight="400" font-stretch="normal" font-size="41" text-anchor="start" direction="ltr" writing-mode="lr-tb" unicode-bidi="normal" text-decoration="none" transform="matrix(1 0 0 1 227.463 958)">80</text></g><g clip-path="url(#clip19)"><text fill="#595959" fill-opacity="1" font-family="Calibri,Calibri_MSFontService,sans-serif" font-style="normal" font-variant="normal" font-weight="400" font-stretch="normal" font-size="41" text-anchor="start" direction="ltr" writing-mode="lr-tb" unicode-bidi="normal" text-decoration="none" transform="matrix(1 0 0 1 297.079 1784)">0</text></g><g clip-path="url(#clip20)"><text fill="#595959" fill-opacity="1" font-family="Calibri,Calibri_MSFontService,sans-serif" font-style="normal" font-variant="normal" font-weight="400" font-stretch="normal" font-size="41" text-anchor="start" direction="ltr" writing-mode="lr-tb" unicode-bidi="normal" text-decoration="none" transform="matrix(1 0 0 1 532.322 1784)">1</text></g><g clip-path="url(#clip21)"><text fill="#595959" fill-opacity="1" font-family="Calibri,Calibri_MSFontService,sans-serif" font-style="normal" font-variant="normal" font-weight="400" font-stretch="normal" font-size="41" text-anchor="start" direction="ltr" writing-mode="lr-tb" unicode-bidi="normal" text-decoration="none" transform="matrix(1 0 0 1 767.564 1784)">2</text></g><g clip-path="url(#clip22)"><text fill="#595959" fill-opacity="1" font-family="Calibri,Calibri_MSFontService,sans-serif" font-style="normal" font-variant="normal" font-weight="400" font-stretch="normal" font-size="41" text-anchor="start" direction="ltr" writing-mode="lr-tb" unicode-bidi="normal" text-decoration="none" transform="matrix(1 0 0 1 1002.81 1784)">3</text></g><g clip-path="url(#clip23)"><text fill="#595959" fill-opacity="1" font-family="Calibri,Calibri_MSFontService,sans-serif" font-style="normal" font-variant="normal" font-weight="400" font-stretch="normal" font-size="41" text-anchor="start" direction="ltr" writing-mode="lr-tb" unicode-bidi="normal" text-decoration="none" transform="matrix(1 0 0 1 1238.05 1784)">4</text></g><g clip-path="url(#clip24)"><text fill="#595959" fill-opacity="1" font-family="Calibri,Calibri_MSFontService,sans-serif" font-style="normal" font-variant="normal" font-weight="400" font-stretch="normal" font-size="41" text-anchor="start" direction="ltr" writing-mode="lr-tb" unicode-bidi="normal" text-decoration="none" transform="matrix(1 0 0 1 1473.29 1784)">5</text></g><g clip-path="url(#clip25)"><text fill="#595959" fill-opacity="1" font-family="Calibri,Calibri_MSFontService,sans-serif" font-style="normal" font-variant="normal" font-weight="400" font-stretch="normal" font-size="41" text-anchor="start" direction="ltr" writing-mode="lr-tb" unicode-bidi="normal" text-decoration="none" transform="matrix(1 0 0 1 1708.53 1784)">6</text></g><g clip-path="url(#clip26)"><text fill="#595959" fill-opacity="1" font-family="Calibri,Calibri_MSFontService,sans-serif" font-style="normal" font-variant="normal" font-weight="400" font-stretch="normal" font-size="41" text-anchor="start" direction="ltr" writing-mode="lr-tb" unicode-bidi="normal" text-decoration="none" transform="matrix(1 0 0 1 1943.78 1784)">7</text></g><g clip-path="url(#clip27)"><text fill="#595959" fill-opacity="1" font-family="Calibri,Calibri_MSFontService,sans-serif" font-style="normal" font-variant="normal" font-weight="400" font-stretch="normal" font-size="41" text-anchor="start" direction="ltr" writing-mode="lr-tb" unicode-bidi="normal" text-decoration="none" transform="matrix(1 0 0 1 2179.02 1784)">8</text></g><g clip-path="url(#clip28)"><text fill="#595959" fill-opacity="1" font-family="Calibri,Calibri_MSFontService,sans-serif" font-style="normal" font-variant="normal" font-weight="400" font-stretch="normal" font-size="41" text-anchor="start" direction="ltr" writing-mode="lr-tb" unicode-bidi="normal" text-decoration="none" transform="matrix(1 0 0 1 2414.26 1784)">9</text></g><g clip-path="url(#clip29)"><text fill="#595959" fill-opacity="1" font-family="Calibri,Calibri_MSFontService,sans-serif" font-style="normal" font-variant="normal" font-weight="400" font-stretch="normal" font-size="46" text-anchor="start" direction="ltr" writing-mode="lr-tb" unicode-bidi="normal" text-decoration="none" transform="matrix(6.12323e-17 -1 1 6.12323e-17 201.773 1369)">IOU</text></g><g clip-path="url(#clip30)"><text fill="#595959" fill-opacity="1" font-family="Calibri,Calibri_MSFontService,sans-serif" font-style="normal" font-variant="normal" font-weight="400" font-stretch="normal" font-size="46" text-anchor="start" direction="ltr" writing-mode="lr-tb" unicode-bidi="normal" text-decoration="none" transform="matrix(1 0 0 1 1161.52 1853)">10 second increments</text></g><g clip-path="url(#clip31)"><text fill="#595959" fill-opacity="1" font-family="Calibri,Calibri_MSFontService,sans-serif" font-style="normal" font-variant="normal" font-weight="400" font-stretch="normal" font-size="64" text-anchor="start" direction="ltr" writing-mode="lr-tb" unicode-bidi="normal" text-decoration="none" transform="matrix(1 0 0 1 1137.13 873)">IOU vs Time</text></g><g clip-path="url(#clip32)"><path d="M275.021 1961C275.021 1967.07 270.311 1972 264.5 1972 258.689 1972 253.978 1967.07 253.978 1961 253.978 1954.92 258.689 1950 264.5 1950 270.311 1950 275.021 1954.92 275.021 1961Z" stroke="#4472C4" stroke-width="3.4375" stroke-linecap="butt" stroke-linejoin="round" stroke-miterlimit="10" stroke-opacity="1" fill="#4472C4" fill-rule="nonzero" fill-opacity="1"/></g><g clip-path="url(#clip33)"><text fill="#595959" fill-opacity="1" font-family="Calibri,Calibri_MSFontService,sans-serif" font-style="normal" font-variant="normal" font-weight="400" font-stretch="normal" font-size="41" text-anchor="start" direction="ltr" writing-mode="lr-tb" unicode-bidi="normal" text-decoration="none" transform="matrix(1 0 0 1 285.14 1971)">baseline</text></g><g clip-path="url(#clip34)"><path d="M478 1961C478 1967.07 473.075 1972 467 1972 460.925 1972 456 1967.07 456 1961 456 1954.92 460.925 1950 467 1950 473.075 1950 478 1954.92 478 1961Z" stroke="#ED7D31" stroke-width="3.4375" stroke-linecap="butt" stroke-linejoin="round" stroke-miterlimit="10" stroke-opacity="1" fill="#ED7D31" fill-rule="nonzero" fill-opacity="1"/></g><g clip-path="url(#clip35)"><text fill="#595959" fill-opacity="1" font-family="Calibri,Calibri_MSFontService,sans-serif" font-style="normal" font-variant="normal" font-weight="400" font-stretch="normal" font-size="41" text-anchor="start" direction="ltr" writing-mode="lr-tb" unicode-bidi="normal" text-decoration="none" transform="matrix(1 0 0 1 488.068 1971)">retrain every 10s (15 FPS)</text></g><g clip-path="url(#clip36)"><path d="M969 1961C969 1967.07 964.075 1972 958 1972 951.925 1972 947 1967.07 947 1961 947 1954.92 951.925 1950 958 1950 964.075 1950 969 1954.92 969 1961Z" stroke="#A5A5A5" stroke-width="3.4375" stroke-linecap="butt" stroke-linejoin="round" stroke-miterlimit="10" stroke-opacity="1" fill="#A5A5A5" fill-rule="nonzero" fill-opacity="1"/></g><g clip-path="url(#clip37)"><text fill="#595959" fill-opacity="1" font-family="Calibri,Calibri_MSFontService,sans-serif" font-style="normal" font-variant="normal" font-weight="400" font-stretch="normal" font-size="41" text-anchor="start" direction="ltr" writing-mode="lr-tb" unicode-bidi="normal" text-decoration="none" transform="matrix(1 0 0 1 979.839 1971)">retrain every 10s (5 FPS)</text></g><g clip-path="url(#clip38)"><path d="M1440 1961C1440 1967.07 1435.08 1972 1429 1972 1422.93 1972 1418 1967.07 1418 1961 1418 1954.92 1422.93 1950 1429 1950 1435.08 1950 1440 1954.92 1440 1961Z" stroke="#FFC000" stroke-width="3.4375" stroke-linecap="butt" stroke-linejoin="round" stroke-miterlimit="10" stroke-opacity="1" fill="#FFC000" fill-rule="nonzero" fill-opacity="1"/></g><g clip-path="url(#clip39)"><text fill="#595959" fill-opacity="1" font-family="Calibri,Calibri_MSFontService,sans-serif" font-style="normal" font-variant="normal" font-weight="400" font-stretch="normal" font-size="41" text-anchor="start" direction="ltr" writing-mode="lr-tb" unicode-bidi="normal" text-decoration="none" transform="matrix(1 0 0 1 1450.71 1971)">retrain every 20s (15 FPS)</text></g><g clip-path="url(#clip40)"><path d="M1932 1961C1932 1967.07 1927.08 1972 1921 1972 1914.93 1972 1910 1967.07 1910 1961 1910 1954.92 1914.93 1950 1921 1950 1927.08 1950 1932 1954.92 1932 1961Z" stroke="#5B9BD5" stroke-width="3.4375" stroke-linecap="butt" stroke-linejoin="round" stroke-miterlimit="10" stroke-opacity="1" fill="#5B9BD5" fill-rule="nonzero" fill-opacity="1"/></g><g clip-path="url(#clip41)"><text fill="#595959" fill-opacity="1" font-family="Calibri,Calibri_MSFontService,sans-serif" font-style="normal" font-variant="normal" font-weight="400" font-stretch="normal" font-size="41" text-anchor="start" direction="ltr" writing-mode="lr-tb" unicode-bidi="normal" text-decoration="none" transform="matrix(1 0 0 1 1942.48 1971)">retrain every 20s (5 FPS)</text></g><rect x="100.5" y="778.5" width="2386" height="1249" stroke="#D9D9D9" stroke-width="3.4375" stroke-linecap="butt" stroke-linejoin="round" stroke-miterlimit="10" stroke-opacity="1" fill="none"/></g></svg>