<svg width="2488" height="999" xmlns="http://www.w3.org/2000/svg" xmlns:xlink="http://www.w3.org/1999/xlink" overflow="hidden"><defs><clipPath id="clip0"><rect x="2264" y="1686" width="2488" height="999"/></clipPath><clipPath id="clip1"><rect x="2266" y="1690" width="2483" height="990"/></clipPath><clipPath id="clip2"><rect x="2266" y="1690" width="2483" height="990"/></clipPath><clipPath id="clip3"><rect x="2266" y="1690" width="2483" height="990"/></clipPath><clipPath id="clip4"><rect x="2266" y="1690" width="2483" height="990"/></clipPath><clipPath id="clip5"><rect x="2266" y="1690" width="2483" height="990"/></clipPath><clipPath id="clip6"><rect x="2266" y="1690" width="2483" height="990"/></clipPath><clipPath id="clip7"><rect x="2266" y="1690" width="2483" height="990"/></clipPath><clipPath id="clip8"><rect x="2266" y="1690" width="2483" height="990"/></clipPath><clipPath id="clip9"><rect x="2266" y="1690" width="2483" height="990"/></clipPath><clipPath id="clip10"><rect x="2266" y="1690" width="2483" height="990"/></clipPath><clipPath id="clip11"><rect x="2266" y="1690" width="2483" height="990"/></clipPath><clipPath id="clip12"><rect x="2266" y="1690" width="2483" height="990"/></clipPath><clipPath id="clip13"><rect x="2266" y="1690" width="2483" height="990"/></clipPath><clipPath id="clip14"><rect x="2266" y="1690" width="2483" height="990"/></clipPath><clipPath id="clip15"><rect x="2266" y="1690" width="2483" height="990"/></clipPath><clipPath id="clip16"><rect x="2266" y="1690" width="2483" height="990"/></clipPath><clipPath id="clip17"><rect x="2266" y="1690" width="2483" height="990"/></clipPath><clipPath id="clip18"><rect x="2266" y="1690" width="2483" height="990"/></clipPath><clipPath id="clip19"><rect x="2266" y="1690" width="2483" height="990"/></clipPath><clipPath id="clip20"><rect x="2266" y="1690" width="2483" height="990"/></clipPath><clipPath id="clip21"><rect x="2266" y="1690" width="2483" height="990"/></clipPath><clipPath id="clip22"><rect x="2266" y="1690" width="2483" height="990"/></clipPath><clipPath id="clip23"><rect x="2266" y="1690" width="2483" height="990"/></clipPath><clipPath id="clip24"><rect x="2266" y="1690" width="2483" height="990"/></clipPath><clipPath id="clip25"><rect x="2266" y="1690" width="2483" height="990"/></clipPath><clipPath id="clip26"><rect x="2266" y="1690" width="2483" height="990"/></clipPath><clipPath id="clip27"><rect x="2266" y="1690" width="2483" height="990"/></clipPath><clipPath id="clip28"><rect x="2266" y="1690" width="2483" height="990"/></clipPath><clipPath id="clip29"><rect x="2266" y="1690" width="2483" height="990"/></clipPath><clipPath id="clip30"><rect x="2266" y="1690" width="2483" height="990"/></clipPath><clipPath id="clip31"><rect x="2266" y="1690" width="2483" height="990"/></clipPath><clipPath id="clip32"><rect x="2266" y="1690" width="2483" height="990"/></clipPath><clipPath id="clip33"><rect x="2266" y="1690" width="2483" height="990"/></clipPath><clipPath id="clip34"><rect x="2266" y="1690" width="2483" height="990"/></clipPath><clipPath id="clip35"><rect x="2266" y="1690" width="2483" height="990"/></clipPath><clipPath id="clip36"><rect x="2266" y="1690" width="2483" height="990"/></clipPath><clipPath id="clip37"><rect x="2266" y="1690" width="2483" height="990"/></clipPath></defs><g clip-path="url(#clip0)" transform="translate(-2264 -1686)"><rect x="2267" y="1691" width="2482" height="990" fill="#FFFFFF" fill-opacity="1"/><g clip-path="url(#clip1)"><path d="M2376.5 2382.58 4688.5 2382.58M2376.5 2295.58 4688.5 2295.58M2376.5 2208.57 4688.5 2208.57M2376.5 2121.57 4688.5 2121.57M2376.5 2034.57 4688.5 2034.57M2376.5 1947.56 4688.5 1947.56M2376.5 1860.5 4688.5 1860.5" stroke="#D9D9D9" stroke-width="3.4375" stroke-linecap="butt" stroke-linejoin="round" stroke-miterlimit="10" stroke-opacity="1" fill="none" fill-rule="nonzero"/></g><g clip-path="url(#clip2)"><path d="M2665.59 1860.5 2665.59 2469.5M2954.6 1860.5 2954.6 2469.5M3243.61 1860.5 3243.61 2469.5M3532.62 1860.5 3532.62 2469.5M3821.63 1860.5 3821.63 2469.5M4110.63 1860.5 4110.63 2469.5M4399.64 1860.5 4399.64 2469.5M4688.5 1860.5 4688.5 2469.5" stroke="#D9D9D9" stroke-width="3.4375" stroke-linecap="butt" stroke-linejoin="round" stroke-miterlimit="10" stroke-opacity="1" fill="none" fill-rule="nonzero"/></g><g clip-path="url(#clip3)"><path d="M0 0 0.000360892 609" stroke="#BFBFBF" stroke-width="3.4375" stroke-linecap="butt" stroke-linejoin="round" stroke-miterlimit="10" stroke-opacity="1" fill="none" fill-rule="evenodd" transform="matrix(1 0 0 -1 2376.5 2469.5)"/></g><g clip-path="url(#clip4)"><path d="M2376.5 2469.5 4688.5 2469.5" stroke="#BFBFBF" stroke-width="3.4375" stroke-linecap="butt" stroke-linejoin="round" stroke-miterlimit="10" stroke-opacity="1" fill="none" fill-rule="evenodd"/></g><g clip-path="url(#clip5)"><path d="M2676.49 2081.4C2676.49 2087.47 2671.56 2092.4 2665.49 2092.4 2659.41 2092.4 2654.49 2087.47 2654.49 2081.4 2654.49 2075.32 2659.41 2070.4 2665.49 2070.4 2671.56 2070.4 2676.49 2075.32 2676.49 2081.4Z" stroke="#4472C4" stroke-width="3.4375" stroke-linecap="butt" stroke-linejoin="round" stroke-miterlimit="10" stroke-opacity="1" fill="#4472C4" fill-rule="nonzero" fill-opacity="1"/><path d="M2965.49 1907.4C2965.49 1913.47 2960.56 1918.4 2954.49 1918.4 2948.41 1918.4 2943.49 1913.47 2943.49 1907.4 2943.49 1901.32 2948.41 1896.4 2954.49 1896.4 2960.56 1896.4 2965.49 1901.32 2965.49 1907.4Z" stroke="#4472C4" stroke-width="3.4375" stroke-linecap="butt" stroke-linejoin="round" stroke-miterlimit="10" stroke-opacity="1" fill="#4472C4" fill-rule="nonzero" fill-opacity="1"/><path d="M3254.49 2328.4C3254.49 2334.47 3249.56 2339.4 3243.49 2339.4 3237.41 2339.4 3232.49 2334.47 3232.49 2328.4 3232.49 2322.32 3237.41 2317.4 3243.49 2317.4 3249.56 2317.4 3254.49 2322.32 3254.49 2328.4Z" stroke="#4472C4" stroke-width="3.4375" stroke-linecap="butt" stroke-linejoin="round" stroke-miterlimit="10" stroke-opacity="1" fill="#4472C4" fill-rule="nonzero" fill-opacity="1"/><path d="M3543.49 2353.4C3543.49 2359.47 3538.56 2364.4 3532.49 2364.4 3526.41 2364.4 3521.49 2359.47 3521.49 2353.4 3521.49 2347.32 3526.41 2342.4 3532.49 2342.4 3538.56 2342.4 3543.49 2347.32 3543.49 2353.4Z" stroke="#4472C4" stroke-width="3.4375" stroke-linecap="butt" stroke-linejoin="round" stroke-miterlimit="10" stroke-opacity="1" fill="#4472C4" fill-rule="nonzero" fill-opacity="1"/><path d="M3832.49 2253.4C3832.49 2259.47 3827.56 2264.4 3821.49 2264.4 3815.41 2264.4 3810.49 2259.47 3810.49 2253.4 3810.49 2247.32 3815.41 2242.4 3821.49 2242.4 3827.56 2242.4 3832.49 2247.32 3832.49 2253.4Z" stroke="#4472C4" stroke-width="3.4375" stroke-linecap="butt" stroke-linejoin="round" stroke-miterlimit="10" stroke-opacity="1" fill="#4472C4" fill-rule="nonzero" fill-opacity="1"/><path d="M4121.49 2250.4C4121.49 2256.47 4116.56 2261.4 4110.49 2261.4 4104.41 2261.4 4099.49 2256.47 4099.49 2250.4 4099.49 2244.32 4104.41 2239.4 4110.49 2239.4 4116.56 2239.4 4121.49 2244.32 4121.49 2250.4Z" stroke="#4472C4" stroke-width="3.4375" stroke-linecap="butt" stroke-linejoin="round" stroke-miterlimit="10" stroke-opacity="1" fill="#4472C4" fill-rule="nonzero" fill-opacity="1"/><path d="M4410.49 2143.4C4410.49 2149.47 4405.56 2154.4 4399.49 2154.4 4393.41 2154.4 4388.49 2149.47 4388.49 2143.4 4388.49 2137.32 4393.41 2132.4 4399.49 2132.4 4405.56 2132.4 4410.49 2137.32 4410.49 2143.4Z" stroke="#4472C4" stroke-width="3.4375" stroke-linecap="butt" stroke-linejoin="round" stroke-miterlimit="10" stroke-opacity="1" fill="#4472C4" fill-rule="nonzero" fill-opacity="1"/></g><g clip-path="url(#clip6)"><path d="M2676.49 2081.4C2676.49 2087.47 2671.56 2092.4 2665.49 2092.4 2659.41 2092.4 2654.49 2087.47 2654.49 2081.4 2654.49 2075.32 2659.41 2070.4 2665.49 2070.4 2671.56 2070.4 2676.49 2075.32 2676.49 2081.4Z" stroke="#ED7D31" stroke-width="3.4375" stroke-linecap="butt" stroke-linejoin="round" stroke-miterlimit="10" stroke-opacity="1" fill="#ED7D31" fill-rule="nonzero" fill-opacity="1"/><path d="M2965.49 1908.4C2965.49 1914.47 2960.56 1919.4 2954.49 1919.4 2948.41 1919.4 2943.49 1914.47 2943.49 1908.4 2943.49 1902.32 2948.41 1897.4 2954.49 1897.4 2960.56 1897.4 2965.49 1902.32 2965.49 1908.4Z" stroke="#ED7D31" stroke-width="3.4375" stroke-linecap="butt" stroke-linejoin="round" stroke-miterlimit="10" stroke-opacity="1" fill="#ED7D31" fill-rule="nonzero" fill-opacity="1"/><path d="M3254.49 2330.4C3254.49 2336.47 3249.56 2341.4 3243.49 2341.4 3237.41 2341.4 3232.49 2336.47 3232.49 2330.4 3232.49 2324.32 3237.41 2319.4 3243.49 2319.4 3249.56 2319.4 3254.49 2324.32 3254.49 2330.4Z" stroke="#ED7D31" stroke-width="3.4375" stroke-linecap="butt" stroke-linejoin="round" stroke-miterlimit="10" stroke-opacity="1" fill="#ED7D31" fill-rule="nonzero" fill-opacity="1"/><path d="M3543.49 2354.4C3543.49 2360.47 3538.56 2365.4 3532.49 2365.4 3526.41 2365.4 3521.49 2360.47 3521.49 2354.4 3521.49 2348.32 3526.41 2343.4 3532.49 2343.4 3538.56 2343.4 3543.49 2348.32 3543.49 2354.4Z" stroke="#ED7D31" stroke-width="3.4375" stroke-linecap="butt" stroke-linejoin="round" stroke-miterlimit="10" stroke-opacity="1" fill="#ED7D31" fill-rule="nonzero" fill-opacity="1"/><path d="M3832.49 2250.4C3832.49 2256.47 3827.56 2261.4 3821.49 2261.4 3815.41 2261.4 3810.49 2256.47 3810.49 2250.4 3810.49 2244.32 3815.41 2239.4 3821.49 2239.4 3827.56 2239.4 3832.49 2244.32 3832.49 2250.4Z" stroke="#ED7D31" stroke-width="3.4375" stroke-linecap="butt" stroke-linejoin="round" stroke-miterlimit="10" stroke-opacity="1" fill="#ED7D31" fill-rule="nonzero" fill-opacity="1"/><path d="M4121.49 2237.4C4121.49 2243.47 4116.56 2248.4 4110.49 2248.4 4104.41 2248.4 4099.49 2243.47 4099.49 2237.4 4099.49 2231.32 4104.41 2226.4 4110.49 2226.4 4116.56 2226.4 4121.49 2231.32 4121.49 2237.4Z" stroke="#ED7D31" stroke-width="3.4375" stroke-linecap="butt" stroke-linejoin="round" stroke-miterlimit="10" stroke-opacity="1" fill="#ED7D31" fill-rule="nonzero" fill-opacity="1"/><path d="M4410.49 2119.4C4410.49 2125.47 4405.56 2130.4 4399.49 2130.4 4393.41 2130.4 4388.49 2125.47 4388.49 2119.4 4388.49 2113.32 4393.41 2108.4 4399.49 2108.4 4405.56 2108.4 4410.49 2113.32 4410.49 2119.4Z" stroke="#ED7D31" stroke-width="3.4375" stroke-linecap="butt" stroke-linejoin="round" stroke-miterlimit="10" stroke-opacity="1" fill="#ED7D31" fill-rule="nonzero" fill-opacity="1"/></g><g clip-path="url(#clip7)"><path d="M2676.49 2081.4C2676.49 2087.47 2671.56 2092.4 2665.49 2092.4 2659.41 2092.4 2654.49 2087.47 2654.49 2081.4 2654.49 2075.32 2659.41 2070.4 2665.49 2070.4 2671.56 2070.4 2676.49 2075.32 2676.49 2081.4Z" stroke="#A5A5A5" stroke-width="3.4375" stroke-linecap="butt" stroke-linejoin="round" stroke-miterlimit="10" stroke-opacity="1" fill="#A5A5A5" fill-rule="nonzero" fill-opacity="1"/><path d="M2965.49 1919.4C2965.49 1925.47 2960.56 1930.4 2954.49 1930.4 2948.41 1930.4 2943.49 1925.47 2943.49 1919.4 2943.49 1913.32 2948.41 1908.4 2954.49 1908.4 2960.56 1908.4 2965.49 1913.32 2965.49 1919.4Z" stroke="#A5A5A5" stroke-width="3.4375" stroke-linecap="butt" stroke-linejoin="round" stroke-miterlimit="10" stroke-opacity="1" fill="#A5A5A5" fill-rule="nonzero" fill-opacity="1"/><path d="M3254.49 2328.4C3254.49 2334.47 3249.56 2339.4 3243.49 2339.4 3237.41 2339.4 3232.49 2334.47 3232.49 2328.4 3232.49 2322.32 3237.41 2317.4 3243.49 2317.4 3249.56 2317.4 3254.49 2322.32 3254.49 2328.4Z" stroke="#A5A5A5" stroke-width="3.4375" stroke-linecap="butt" stroke-linejoin="round" stroke-miterlimit="10" stroke-opacity="1" fill="#A5A5A5" fill-rule="nonzero" fill-opacity="1"/><path d="M3543.49 2369.4C3543.49 2375.47 3538.56 2380.4 3532.49 2380.4 3526.41 2380.4 3521.49 2375.47 3521.49 2369.4 3521.49 2363.32 3526.41 2358.4 3532.49 2358.4 3538.56 2358.4 3543.49 2363.32 3543.49 2369.4Z" stroke="#A5A5A5" stroke-width="3.4375" stroke-linecap="butt" stroke-linejoin="round" stroke-miterlimit="10" stroke-opacity="1" fill="#A5A5A5" fill-rule="nonzero" fill-opacity="1"/><path d="M3832.49 2248.4C3832.49 2254.47 3827.56 2259.4 3821.49 2259.4 3815.41 2259.4 3810.49 2254.47 3810.49 2248.4 3810.49 2242.32 3815.41 2237.4 3821.49 2237.4 3827.56 2237.4 3832.49 2242.32 3832.49 2248.4Z" stroke="#A5A5A5" stroke-width="3.4375" stroke-linecap="butt" stroke-linejoin="round" stroke-miterlimit="10" stroke-opacity="1" fill="#A5A5A5" fill-rule="nonzero" fill-opacity="1"/><path d="M4121.49 2254.4C4121.49 2260.47 4116.56 2265.4 4110.49 2265.4 4104.41 2265.4 4099.49 2260.47 4099.49 2254.4 4099.49 2248.32 4104.41 2243.4 4110.49 2243.4 4116.56 2243.4 4121.49 2248.32 4121.49 2254.4Z" stroke="#A5A5A5" stroke-width="3.4375" stroke-linecap="butt" stroke-linejoin="round" stroke-miterlimit="10" stroke-opacity="1" fill="#A5A5A5" fill-rule="nonzero" fill-opacity="1"/><path d="M4410.49 2120.4C4410.49 2126.47 4405.56 2131.4 4399.49 2131.4 4393.41 2131.4 4388.49 2126.47 4388.49 2120.4 4388.49 2114.32 4393.41 2109.4 4399.49 2109.4 4405.56 2109.4 4410.49 2114.32 4410.49 2120.4Z" stroke="#A5A5A5" stroke-width="3.4375" stroke-linecap="butt" stroke-linejoin="round" stroke-miterlimit="10" stroke-opacity="1" fill="#A5A5A5" fill-rule="nonzero" fill-opacity="1"/></g><g clip-path="url(#clip8)"><path d="M2676.49 2081.4C2676.49 2087.47 2671.56 2092.4 2665.49 2092.4 2659.41 2092.4 2654.49 2087.47 2654.49 2081.4 2654.49 2075.32 2659.41 2070.4 2665.49 2070.4 2671.56 2070.4 2676.49 2075.32 2676.49 2081.4Z" stroke="#FFC000" stroke-width="3.4375" stroke-linecap="butt" stroke-linejoin="round" stroke-miterlimit="10" stroke-opacity="1" fill="#FFC000" fill-rule="nonzero" fill-opacity="1"/><path d="M2965.49 1907.4C2965.49 1913.47 2960.56 1918.4 2954.49 1918.4 2948.41 1918.4 2943.49 1913.47 2943.49 1907.4 2943.49 1901.32 2948.41 1896.4 2954.49 1896.4 2960.56 1896.4 2965.49 1901.32 2965.49 1907.4Z" stroke="#FFC000" stroke-width="3.4375" stroke-linecap="butt" stroke-linejoin="round" stroke-miterlimit="10" stroke-opacity="1" fill="#FFC000" fill-rule="nonzero" fill-opacity="1"/><path d="M3254.49 2332.4C3254.49 2338.47 3249.56 2343.4 3243.49 2343.4 3237.41 2343.4 3232.49 2338.47 3232.49 2332.4 3232.49 2326.32 3237.41 2321.4 3243.49 2321.4 3249.56 2321.4 3254.49 2326.32 3254.49 2332.4Z" stroke="#FFC000" stroke-width="3.4375" stroke-linecap="butt" stroke-linejoin="round" stroke-miterlimit="10" stroke-opacity="1" fill="#FFC000" fill-rule="nonzero" fill-opacity="1"/><path d="M3543.49 2368.4C3543.49 2374.47 3538.56 2379.4 3532.49 2379.4 3526.41 2379.4 3521.49 2374.47 3521.49 2368.4 3521.49 2362.32 3526.41 2357.4 3532.49 2357.4 3538.56 2357.4 3543.49 2362.32 3543.49 2368.4Z" stroke="#FFC000" stroke-width="3.4375" stroke-linecap="butt" stroke-linejoin="round" stroke-miterlimit="10" stroke-opacity="1" fill="#FFC000" fill-rule="nonzero" fill-opacity="1"/><path d="M3832.49 2250.4C3832.49 2256.47 3827.56 2261.4 3821.49 2261.4 3815.41 2261.4 3810.49 2256.47 3810.49 2250.4 3810.49 2244.32 3815.41 2239.4 3821.49 2239.4 3827.56 2239.4 3832.49 2244.32 3832.49 2250.4Z" stroke="#FFC000" stroke-width="3.4375" stroke-linecap="butt" stroke-linejoin="round" stroke-miterlimit="10" stroke-opacity="1" fill="#FFC000" fill-rule="nonzero" fill-opacity="1"/><path d="M4121.49 2246.4C4121.49 2252.47 4116.56 2257.4 4110.49 2257.4 4104.41 2257.4 4099.49 2252.47 4099.49 2246.4 4099.49 2240.32 4104.41 2235.4 4110.49 2235.4 4116.56 2235.4 4121.49 2240.32 4121.49 2246.4Z" stroke="#FFC000" stroke-width="3.4375" stroke-linecap="butt" stroke-linejoin="round" stroke-miterlimit="10" stroke-opacity="1" fill="#FFC000" fill-rule="nonzero" fill-opacity="1"/><path d="M4410.49 2118.4C4410.49 2124.47 4405.56 2129.4 4399.49 2129.4 4393.41 2129.4 4388.49 2124.47 4388.49 2118.4 4388.49 2112.32 4393.41 2107.4 4399.49 2107.4 4405.56 2107.4 4410.49 2112.32 4410.49 2118.4Z" stroke="#FFC000" stroke-width="3.4375" stroke-linecap="butt" stroke-linejoin="round" stroke-miterlimit="10" stroke-opacity="1" fill="#FFC000" fill-rule="nonzero" fill-opacity="1"/></g><g clip-path="url(#clip9)"><path d="M2676.49 2081.4C2676.49 2087.47 2671.56 2092.4 2665.49 2092.4 2659.41 2092.4 2654.49 2087.47 2654.49 2081.4 2654.49 2075.32 2659.41 2070.4 2665.49 2070.4 2671.56 2070.4 2676.49 2075.32 2676.49 2081.4Z" stroke="#5B9BD5" stroke-width="3.4375" stroke-linecap="butt" stroke-linejoin="round" stroke-miterlimit="10" stroke-opacity="1" fill="#5B9BD5" fill-rule="nonzero" fill-opacity="1"/><path d="M2965.49 1907.4C2965.49 1913.47 2960.56 1918.4 2954.49 1918.4 2948.41 1918.4 2943.49 1913.47 2943.49 1907.4 2943.49 1901.32 2948.41 1896.4 2954.49 1896.4 2960.56 1896.4 2965.49 1901.32 2965.49 1907.4Z" stroke="#5B9BD5" stroke-width="3.4375" stroke-linecap="butt" stroke-linejoin="round" stroke-miterlimit="10" stroke-opacity="1" fill="#5B9BD5" fill-rule="nonzero" fill-opacity="1"/><path d="M3254.49 2328.4C3254.49 2334.47 3249.56 2339.4 3243.49 2339.4 3237.41 2339.4 3232.49 2334.47 3232.49 2328.4 3232.49 2322.32 3237.41 2317.4 3243.49 2317.4 3249.56 2317.4 3254.49 2322.32 3254.49 2328.4Z" stroke="#5B9BD5" stroke-width="3.4375" stroke-linecap="butt" stroke-linejoin="round" stroke-miterlimit="10" stroke-opacity="1" fill="#5B9BD5" fill-rule="nonzero" fill-opacity="1"/><path d="M3543.49 2360.4C3543.49 2366.47 3538.56 2371.4 3532.49 2371.4 3526.41 2371.4 3521.49 2366.47 3521.49 2360.4 3521.49 2354.32 3526.41 2349.4 3532.49 2349.4 3538.56 2349.4 3543.49 2354.32 3543.49 2360.4Z" stroke="#5B9BD5" stroke-width="3.4375" stroke-linecap="butt" stroke-linejoin="round" stroke-miterlimit="10" stroke-opacity="1" fill="#5B9BD5" fill-rule="nonzero" fill-opacity="1"/><path d="M3832.49 2250.4C3832.49 2256.47 3827.56 2261.4 3821.49 2261.4 3815.41 2261.4 3810.49 2256.47 3810.49 2250.4 3810.49 2244.32 3815.41 2239.4 3821.49 2239.4 3827.56 2239.4 3832.49 2244.32 3832.49 2250.4Z" stroke="#5B9BD5" stroke-width="3.4375" stroke-linecap="butt" stroke-linejoin="round" stroke-miterlimit="10" stroke-opacity="1" fill="#5B9BD5" fill-rule="nonzero" fill-opacity="1"/><path d="M4121.49 2245.4C4121.49 2251.47 4116.56 2256.4 4110.49 2256.4 4104.41 2256.4 4099.49 2251.47 4099.49 2245.4 4099.49 2239.32 4104.41 2234.4 4110.49 2234.4 4116.56 2234.4 4121.49 2239.32 4121.49 2245.4Z" stroke="#5B9BD5" stroke-width="3.4375" stroke-linecap="butt" stroke-linejoin="round" stroke-miterlimit="10" stroke-opacity="1" fill="#5B9BD5" fill-rule="nonzero" fill-opacity="1"/><path d="M4410.49 2123.4C4410.49 2129.47 4405.56 2134.4 4399.49 2134.4 4393.41 2134.4 4388.49 2129.47 4388.49 2123.4 4388.49 2117.32 4393.41 2112.4 4399.49 2112.4 4405.56 2112.4 4410.49 2117.32 4410.49 2123.4Z" stroke="#5B9BD5" stroke-width="3.4375" stroke-linecap="butt" stroke-linejoin="round" stroke-miterlimit="10" stroke-opacity="1" fill="#5B9BD5" fill-rule="nonzero" fill-opacity="1"/></g><g clip-path="url(#clip10)"><text fill="#595959" fill-opacity="1" font-family="Calibri,Calibri_MSFontService,sans-serif" font-style="normal" font-variant="normal" font-weight="400" font-stretch="normal" font-size="41" text-anchor="start" direction="ltr" writing-mode="lr-tb" unicode-bidi="normal" text-decoration="none" transform="matrix(1 0 0 1 2317.68 2480)">0</text></g><g clip-path="url(#clip11)"><text fill="#595959" fill-opacity="1" font-family="Calibri,Calibri_MSFontService,sans-serif" font-style="normal" font-variant="normal" font-weight="400" font-stretch="normal" font-size="41" text-anchor="start" direction="ltr" writing-mode="lr-tb" unicode-bidi="normal" text-decoration="none" transform="matrix(1 0 0 1 2296.78 2393)">10</text></g><g clip-path="url(#clip12)"><text fill="#595959" fill-opacity="1" font-family="Calibri,Calibri_MSFontService,sans-serif" font-style="normal" font-variant="normal" font-weight="400" font-stretch="normal" font-size="41" text-anchor="start" direction="ltr" writing-mode="lr-tb" unicode-bidi="normal" text-decoration="none" transform="matrix(1 0 0 1 2296.78 2306)">20</text></g><g clip-path="url(#clip13)"><text fill="#595959" fill-opacity="1" font-family="Calibri,Calibri_MSFontService,sans-serif" font-style="normal" font-variant="normal" font-weight="400" font-stretch="normal" font-size="41" text-anchor="start" direction="ltr" writing-mode="lr-tb" unicode-bidi="normal" text-decoration="none" transform="matrix(1 0 0 1 2296.78 2219)">30</text></g><g clip-path="url(#clip14)"><text fill="#595959" fill-opacity="1" font-family="Calibri,Calibri_MSFontService,sans-serif" font-style="normal" font-variant="normal" font-weight="400" font-stretch="normal" font-size="41" text-anchor="start" direction="ltr" writing-mode="lr-tb" unicode-bidi="normal" text-decoration="none" transform="matrix(1 0 0 1 2296.78 2132)">40</text></g><g clip-path="url(#clip15)"><text fill="#595959" fill-opacity="1" font-family="Calibri,Calibri_MSFontService,sans-serif" font-style="normal" font-variant="normal" font-weight="400" font-stretch="normal" font-size="41" text-anchor="start" direction="ltr" writing-mode="lr-tb" unicode-bidi="normal" text-decoration="none" transform="matrix(1 0 0 1 2296.78 2045)">50</text></g><g clip-path="url(#clip16)"><text fill="#595959" fill-opacity="1" font-family="Calibri,Calibri_MSFontService,sans-serif" font-style="normal" font-variant="normal" font-weight="400" font-stretch="normal" font-size="41" text-anchor="start" direction="ltr" writing-mode="lr-tb" unicode-bidi="normal" text-decoration="none" transform="matrix(1 0 0 1 2296.78 1958)">60</text></g><g clip-path="url(#clip17)"><text fill="#595959" fill-opacity="1" font-family="Calibri,Calibri_MSFontService,sans-serif" font-style="normal" font-variant="normal" font-weight="400" font-stretch="normal" font-size="41" text-anchor="start" direction="ltr" writing-mode="lr-tb" unicode-bidi="normal" text-decoration="none" transform="matrix(1 0 0 1 2296.78 1871)">70</text></g><g clip-path="url(#clip18)"><text fill="#595959" fill-opacity="1" font-family="Calibri,Calibri_MSFontService,sans-serif" font-style="normal" font-variant="normal" font-weight="400" font-stretch="normal" font-size="41" text-anchor="start" direction="ltr" writing-mode="lr-tb" unicode-bidi="normal" text-decoration="none" transform="matrix(1 0 0 1 2366.4 2535)">0</text></g><g clip-path="url(#clip19)"><text fill="#595959" fill-opacity="1" font-family="Calibri,Calibri_MSFontService,sans-serif" font-style="normal" font-variant="normal" font-weight="400" font-stretch="normal" font-size="41" text-anchor="start" direction="ltr" writing-mode="lr-tb" unicode-bidi="normal" text-decoration="none" transform="matrix(1 0 0 1 2655.31 2535)">1</text></g><g clip-path="url(#clip20)"><text fill="#595959" fill-opacity="1" font-family="Calibri,Calibri_MSFontService,sans-serif" font-style="normal" font-variant="normal" font-weight="400" font-stretch="normal" font-size="41" text-anchor="start" direction="ltr" writing-mode="lr-tb" unicode-bidi="normal" text-decoration="none" transform="matrix(1 0 0 1 2944.23 2535)">2</text></g><g clip-path="url(#clip21)"><text fill="#595959" fill-opacity="1" font-family="Calibri,Calibri_MSFontService,sans-serif" font-style="normal" font-variant="normal" font-weight="400" font-stretch="normal" font-size="41" text-anchor="start" direction="ltr" writing-mode="lr-tb" unicode-bidi="normal" text-decoration="none" transform="matrix(1 0 0 1 3233.14 2535)">3</text></g><g clip-path="url(#clip22)"><text fill="#595959" fill-opacity="1" font-family="Calibri,Calibri_MSFontService,sans-serif" font-style="normal" font-variant="normal" font-weight="400" font-stretch="normal" font-size="41" text-anchor="start" direction="ltr" writing-mode="lr-tb" unicode-bidi="normal" text-decoration="none" transform="matrix(1 0 0 1 3522.06 2535)">4</text></g><g clip-path="url(#clip23)"><text fill="#595959" fill-opacity="1" font-family="Calibri,Calibri_MSFontService,sans-serif" font-style="normal" font-variant="normal" font-weight="400" font-stretch="normal" font-size="41" text-anchor="start" direction="ltr" writing-mode="lr-tb" unicode-bidi="normal" text-decoration="none" transform="matrix(1 0 0 1 3810.97 2535)">5</text></g><g clip-path="url(#clip24)"><text fill="#595959" fill-opacity="1" font-family="Calibri,Calibri_MSFontService,sans-serif" font-style="normal" font-variant="normal" font-weight="400" font-stretch="normal" font-size="41" text-anchor="start" direction="ltr" writing-mode="lr-tb" unicode-bidi="normal" text-decoration="none" transform="matrix(1 0 0 1 4099.89 2535)">6</text></g><g clip-path="url(#clip25)"><text fill="#595959" fill-opacity="1" font-family="Calibri,Calibri_MSFontService,sans-serif" font-style="normal" font-variant="normal" font-weight="400" font-stretch="normal" font-size="41" text-anchor="start" direction="ltr" writing-mode="lr-tb" unicode-bidi="normal" text-decoration="none" transform="matrix(1 0 0 1 4388.81 2535)">7</text></g><g clip-path="url(#clip26)"><text fill="#595959" fill-opacity="1" font-family="Calibri,Calibri_MSFontService,sans-serif" font-style="normal" font-variant="normal" font-weight="400" font-stretch="normal" font-size="41" text-anchor="start" direction="ltr" writing-mode="lr-tb" unicode-bidi="normal" text-decoration="none" transform="matrix(1 0 0 1 4677.72 2535)">8</text></g><g clip-path="url(#clip27)"><text fill="#595959" fill-opacity="1" font-family="Calibri,Calibri_MSFontService,sans-serif" font-style="normal" font-variant="normal" font-weight="400" font-stretch="normal" font-size="64" text-anchor="start" direction="ltr" writing-mode="lr-tb" unicode-bidi="normal" text-decoration="none" transform="matrix(1 0 0 1 3116.26 1786)">mAP vs Time (10s increments)</text></g><g clip-path="url(#clip28)"><path d="M2461 2614C2461 2620.07 2456.07 2625 2450 2625 2443.93 2625 2439 2620.07 2439 2614 2439 2607.92 2443.93 2603 2450 2603 2456.07 2603 2461 2607.92 2461 2614Z" stroke="#4472C4" stroke-width="3.4375" stroke-linecap="butt" stroke-linejoin="round" stroke-miterlimit="10" stroke-opacity="1" fill="#4472C4" fill-rule="nonzero" fill-opacity="1"/></g><g clip-path="url(#clip29)"><text fill="#595959" fill-opacity="1" font-family="Calibri,Calibri_MSFontService,sans-serif" font-style="normal" font-variant="normal" font-weight="400" font-stretch="normal" font-size="41" text-anchor="start" direction="ltr" writing-mode="lr-tb" unicode-bidi="normal" text-decoration="none" transform="matrix(1 0 0 1 2471.04 2625)">baseline</text></g><g clip-path="url(#clip30)"><path d="M2678 2614C2678 2620.07 2673.07 2625 2667 2625 2660.93 2625 2656 2620.07 2656 2614 2656 2607.92 2660.93 2603 2667 2603 2673.07 2603 2678 2607.92 2678 2614Z" stroke="#ED7D31" stroke-width="3.4375" stroke-linecap="butt" stroke-linejoin="round" stroke-miterlimit="10" stroke-opacity="1" fill="#ED7D31" fill-rule="nonzero" fill-opacity="1"/></g><g clip-path="url(#clip31)"><text fill="#595959" fill-opacity="1" font-family="Calibri,Calibri_MSFontService,sans-serif" font-style="normal" font-variant="normal" font-weight="400" font-stretch="normal" font-size="41" text-anchor="start" direction="ltr" writing-mode="lr-tb" unicode-bidi="normal" text-decoration="none" transform="matrix(1 0 0 1 2688.51 2625)">retrain every 10s (15 FPS)</text></g><g clip-path="url(#clip32)"><path d="M3184 2614C3184 2620.07 3179.07 2625 3173 2625 3166.93 2625 3162 2620.07 3162 2614 3162 2607.92 3166.93 2603 3173 2603 3179.07 2603 3184 2607.92 3184 2614Z" stroke="#A5A5A5" stroke-width="3.4375" stroke-linecap="butt" stroke-linejoin="round" stroke-miterlimit="10" stroke-opacity="1" fill="#A5A5A5" fill-rule="nonzero" fill-opacity="1"/></g><g clip-path="url(#clip33)"><text fill="#595959" fill-opacity="1" font-family="Calibri,Calibri_MSFontService,sans-serif" font-style="normal" font-variant="normal" font-weight="400" font-stretch="normal" font-size="41" text-anchor="start" direction="ltr" writing-mode="lr-tb" unicode-bidi="normal" text-decoration="none" transform="matrix(1 0 0 1 3194.82 2625)">retrain every 10s (5 FPS)</text></g><g clip-path="url(#clip34)"><path d="M3670 2614C3670 2620.07 3665.07 2625 3659 2625 3652.93 2625 3648 2620.07 3648 2614 3648 2607.92 3652.93 2603 3659 2603 3665.07 2603 3670 2607.92 3670 2614Z" stroke="#FFC000" stroke-width="3.4375" stroke-linecap="butt" stroke-linejoin="round" stroke-miterlimit="10" stroke-opacity="1" fill="#FFC000" fill-rule="nonzero" fill-opacity="1"/></g><g clip-path="url(#clip35)"><text fill="#595959" fill-opacity="1" font-family="Calibri,Calibri_MSFontService,sans-serif" font-style="normal" font-variant="normal" font-weight="400" font-stretch="normal" font-size="41" text-anchor="start" direction="ltr" writing-mode="lr-tb" unicode-bidi="normal" text-decoration="none" transform="matrix(1 0 0 1 3680.24 2625)">retrain every 20s (15 FPS)</text></g><g clip-path="url(#clip36)"><path d="M4176 2614C4176 2620.07 4171.08 2625 4165 2625 4158.92 2625 4154 2620.07 4154 2614 4154 2607.92 4158.92 2603 4165 2603 4171.08 2603 4176 2607.92 4176 2614Z" stroke="#5B9BD5" stroke-width="3.4375" stroke-linecap="butt" stroke-linejoin="round" stroke-miterlimit="10" stroke-opacity="1" fill="#5B9BD5" fill-rule="nonzero" fill-opacity="1"/></g><g clip-path="url(#clip37)"><text fill="#595959" fill-opacity="1" font-family="Calibri,Calibri_MSFontService,sans-serif" font-style="normal" font-variant="normal" font-weight="400" font-stretch="normal" font-size="41" text-anchor="start" direction="ltr" writing-mode="lr-tb" unicode-bidi="normal" text-decoration="none" transform="matrix(1 0 0 1 4186.55 2625)">retrain every 20s (5 FPS)</text></g><rect x="2267.5" y="1691.5" width="2482" height="990" stroke="#D9D9D9" stroke-width="3.4375" stroke-linecap="butt" stroke-linejoin="round" stroke-miterlimit="10" stroke-opacity="1" fill="none"/></g></svg>